<svg width="136" height="26" viewBox="0 0 136 26" fill="none" xmlns="http://www.w3.org/2000/svg">
<path fill-rule="evenodd" clip-rule="evenodd" d="M16.9197 24.2277C15.1327 22.9674 13.8156 18.6185 13.8156 13.4501C13.8156 13.2605 13.8163 13.0732 13.8205 12.8868L13.822 12.8892C8.85044 12.0098 5.25864 9.60044 5.16623 6.7502L5.15201 6.78381C3.93579 8.48579 3.24132 10.4534 3.24132 12.5499C3.24132 18.7193 9.25703 23.774 16.8877 24.2213L16.9197 24.2277ZM0.942505 12.9996C0.942505 6.09725 8.57393 0.5 17.9874 0.5C27.4016 0.5 35.033 6.09725 35.033 12.9996C35.033 19.9027 27.4016 25.5 17.9874 25.5C8.57393 25.5 0.942505 19.9027 0.942505 12.9996ZM17.9881 2.3036C19.8057 2.3036 21.3517 5.4075 21.9247 9.73807L21.9261 9.73087C25.4624 9.11153 27.9375 7.68241 27.9375 6.01883C27.9375 3.78713 23.4828 1.97953 17.9881 1.97953C12.4941 1.97953 8.03939 3.78713 8.03939 6.01883C8.03939 7.68241 10.5145 9.11073 14.0501 9.73087L14.0523 9.73807C14.6252 5.4075 16.1712 2.3036 17.9881 2.3036ZM19.0885 24.2205C26.7192 23.7732 32.7356 18.7185 32.7356 12.5491C32.7356 10.4526 32.0404 8.48499 30.8249 6.78301L30.81 6.7494C30.7183 9.59964 27.1265 12.009 22.1543 12.8884L22.1564 12.886C22.1599 13.0724 22.1614 13.2597 22.1614 13.4493C22.1614 18.6177 20.8435 22.9666 19.0572 24.2269L19.0885 24.2205ZM17.9881 10.0589C18.777 10.06 19.5656 10.0221 20.3516 9.94531L20.3509 9.94611C19.9742 7.17109 19.0586 5.21145 17.9888 5.21145C16.919 5.21145 16.0042 7.17109 15.6267 9.94611L15.626 9.94531C16.4116 10.0217 17.1997 10.0596 17.9881 10.0589ZM17.9881 20.338C19.3564 20.338 20.4732 17.1325 20.5321 13.1132L20.5393 13.1156C18.8423 13.2916 17.1346 13.2916 15.4377 13.1156L15.4448 13.1132C15.5038 17.1325 16.6198 20.338 17.9881 20.338ZM87.9205 12.9996C87.9205 7.72401 91.7206 3.44626 96.4071 3.44626C101.096 3.44626 104.895 7.72401 104.895 12.9996C104.895 18.2768 101.095 22.5529 96.4071 22.5529C91.7206 22.5529 87.9205 18.2768 87.9205 12.9996ZM96.4071 19.0498C99.0244 19.0498 101.147 16.3403 101.147 12.9988C101.147 9.65805 99.0244 6.94864 96.4071 6.94864C93.7898 6.94864 91.6687 9.65805 91.6687 12.9988C91.6687 16.3411 93.7905 19.0498 96.4071 19.0498ZM114.525 7.42635V22.1192H110.948V7.42635H110.961H105.961V4.10481H119.513V7.42635H114.525ZM123.839 18.0663L123.836 18.0703L122.465 22.12H118.287L124.89 4.10481H129.341L135.943 22.12H131.766L130.395 18.0703L130.39 18.0663H123.839ZM127.115 15.0257H129.366L129.365 15.0265L127.13 8.43297H127.1L124.866 15.0265L124.864 15.0257H127.115ZM48.6083 7.42635V22.1192H45.0322V7.42635H45.045H40.0436V4.10481H53.5969V7.42635H48.6083ZM54.5117 12.9996C54.5117 7.72401 58.3118 3.44626 62.9997 3.44626C67.6869 3.44626 71.487 7.72401 71.487 12.9996C71.487 18.2768 67.6869 22.5529 62.9997 22.5529C58.3118 22.5529 54.5117 18.2768 54.5117 12.9996ZM62.9997 19.0498C65.6163 19.0498 67.7388 16.3403 67.7388 12.9988C67.7388 9.65805 65.6163 6.94864 62.9997 6.94864C60.3825 6.94864 58.2606 9.65805 58.2606 12.9988C58.2606 16.3411 60.3825 19.0498 62.9997 19.0498ZM79.7027 22.1192H81.516V15.2793L87.7549 4.10481H83.5788L79.7027 11.6769L75.828 4.10481H71.6519L77.8901 15.2793V22.1192H79.7027Z" fill="#CC2229"/>
</svg>
